<svg width="112" height="74" viewBox="0 0 112 74" fill="none" xmlns="http://www.w3.org/2000/svg">
<path d="M40.9718 37.1742C40.9718 49.4454 46.9872 60.3027 56.1461 66.8074C65.2507 60.1983 71.1982 49.313 71.1982 37.0001C71.1982 24.6872 65.3458 13.99 56.3702 7.36694C47.0755 13.8577 40.965 24.7917 40.965 37.1742H40.9718Z" fill="white"/>
<path d="M36.0698 37.1742C36.0698 23.8793 42.2686 12.04 51.8552 4.53246C46.9872 1.96959 41.4742 0.50708 35.6217 0.50708C15.9664 0.50708 0.0384521 16.8454 0.0384521 37.0071C0.0384521 57.1688 15.9664 73.5071 35.6217 73.5071C41.3724 73.5071 46.7971 72.1003 51.604 69.614C42.1667 62.0926 36.0698 50.3577 36.0698 37.1742Z" fill="white"/>
<path d="M76.1001 73.0126C56.8318 73.0126 41.1619 56.932 41.1619 37.1742C41.1619 17.4164 56.8386 1.33582 76.1001 1.33582C95.3617 1.33582 111.038 17.4164 111.038 37.1742C111.038 56.932 95.3617 73.0126 76.1001 73.0126ZM76.1001 6.35709C59.534 6.35709 46.0638 20.1813 46.0638 37.1742C46.0638 54.1671 59.5408 67.9844 76.1001 67.9844C92.6595 67.9844 106.143 54.1602 106.143 37.1742C106.143 20.1882 92.6663 6.35709 76.1001 6.35709Z" fill="white"/>
</svg>
